<svg width="35" height="33" viewBox="0 0 35 33" fill="none" xmlns="http://www.w3.org/2000/svg">
<path id="search" fill-rule="evenodd" clip-rule="evenodd" d="M25.1611 20.5441C29.019 15.4645 28.5197 8.36685 23.663 3.80963C18.2498 -1.26988 9.47322 -1.26988 4.05994 3.80963C-1.35331 8.88915 -1.35331 17.1246 4.05994 22.2041C8.91659 26.7614 16.4806 27.23 21.8939 23.6099L31.9712 32.9342L35 29.625L25.1611 20.5441ZM20.3958 6.87538C24.0047 10.2617 24.0047 15.752 20.3958 19.1384C16.787 22.5247 10.936 22.5247 7.32712 19.1384C3.71829 15.752 3.71829 10.2617 7.32712 6.87538C10.936 3.48905 16.787 3.48905 20.3958 6.87538Z" fill="#2E3A59"/>
</svg>
